<svg id="_x31__x2C_5" enable-background="new 0 0 24 24" height="512" viewBox="0 0 24 24" width="512" xmlns="http://www.w3.org/2000/svg"><path d="m20.5 23.036c-1.516 0-2.75-1.234-2.75-2.75v-2.946c0-.758.617-1.375 1.375-1.375h2.75c.758 0 1.375.617 1.375 1.375v2.946c0 1.516-1.234 2.75-2.75 2.75z" fill="#607d8b"/><path d="m2.503 11.18c-.757-.794-1.304-1.916-1.542-3.16-.24-1.246-.14-2.477.28-3.465.427-1.002 1.123-1.628 1.96-1.764.709-.116 1.328.165 1.721.421.347.225.762.36 1.109.36.326 0 .679-.121 1.048-.361.569-.371 1.15-.515 1.719-.42.838.136 1.534.762 1.961 1.763.42.988.52 2.219.28 3.466-.238 1.245-.785 2.366-1.542 3.16-1.111 1.165-2.489 1.378-3.497.547-.316.261-.663.422-1.033.482-.938.154-1.813-.346-2.464-1.029z" fill="#f44336"/><path d="m4.407 13.001c-.841 0-1.703-.426-2.468-1.228-.879-.922-1.515-2.225-1.791-3.67-.278-1.447-.162-2.876.326-4.023.496-1.164 1.303-1.891 2.276-2.049.824-.134 1.542.191 1.998.489.403.262.885.418 1.288.418.379 0 .788-.141 1.217-.419.661-.431 1.334-.598 1.996-.488.974.158 1.781.885 2.277 2.048.487 1.147.604 2.577.325 4.024-.276 1.445-.912 2.748-1.791 3.67-1.29 1.353-2.888 1.601-4.06.636-.367.303-.77.49-1.199.56-.131.021-.262.032-.394.032zm1.496-.675c.001 0 .001.001 0 0 .001.001.001 0 0 0zm.196-.002c-.001 0 0 0 0 0zm-.099-1.459c.338 0 .66.123.907.346.596.534 1.326.304 2.068-.473.682-.716 1.18-1.751 1.403-2.916v-.001c.222-1.158.14-2.279-.233-3.155-.286-.672-.689-1.082-1.135-1.154-.282-.046-.6.043-.94.264-.676.44-1.361.662-2.034.662-.691 0-1.459-.241-2.105-.661-.235-.152-.59-.322-.94-.266-.446.072-.85.482-1.136 1.155-.374.876-.456 1.997-.234 3.155.224 1.166.722 2.201 1.404 2.917.525.551 1.081.825 1.535.75.181-.029.36-.123.534-.279.246-.221.568-.344.906-.344z"/><path d="m6.291 4.42c-.021 0-.042-.001-.063-.003-.413-.033-.72-.396-.686-.809.085-1.03-.28-1.729-1.149-2.198-.364-.197-.5-.652-.304-1.017.198-.363.653-.498 1.017-.303 1.397.755 2.065 2.015 1.931 3.642-.032.391-.36.688-.746.688z"/><path d="m20.5 24c-1.93 0-3.5-1.57-3.5-3.5v-3.75c0-.965.785-1.75 1.75-1.75h3.5c.965 0 1.75.785 1.75 1.75v3.75c0 1.93-1.57 3.5-3.5 3.5zm-1.75-7.5c-.138 0-.25.112-.25.25v3.75c0 1.103.897 2 2 2s2-.897 2-2v-3.75c0-.138-.112-.25-.25-.25z"/><path d="m10.375 22c-2.826 0-5.125-2.299-5.125-5.125v-4.875c0-.414.336-.75.75-.75s.75.336.75.75v4.875c0 1.999 1.626 3.625 3.625 3.625s3.625-1.626 3.625-3.625v-11.25c0-1.999 1.626-3.625 3.625-3.625s3.625 1.626 3.625 3.625v10.125c0 .414-.336.75-.75.75s-.75-.336-.75-.75v-10.125c0-1.172-.953-2.125-2.125-2.125s-2.125.953-2.125 2.125v11.25c0 2.826-2.299 5.125-5.125 5.125z"/></svg>