<?xml version="1.0" encoding="UTF-8"?>
<svg width="234px" height="350px" viewBox="0 0 234 350" version="1.1" xmlns="http://www.w3.org/2000/svg" xmlns:xlink="http://www.w3.org/1999/xlink">
    <title>Page 1</title>
    <g id="Page-1" stroke="none" stroke-width="1" fill="none" fill-rule="evenodd">
        <path d="M90.8203125,169.878906 L148.550781,169.878906 C167.70178,161.548809 182.105426,153.758445 191.761719,146.507813 C201.418011,139.25718 213.915407,126.848326 229.253906,109.28125 C228.514337,88.2761648 226.846368,73.5456961 224.25,65.0898438 C221.653632,56.6339914 215.710924,46.5780019 206.421875,34.921875 C196.893557,23.9018913 188.733401,17.2143913 181.941406,14.859375 C175.149411,12.5043587 164.019203,12.5043587 148.550781,14.859375 C135.33585,7.7578125 124.750953,4.20703125 116.796092,4.20703125 C108.841231,4.20703125 97.3740441,7.7578125 82.3945313,14.859375 C70.3601356,16.3463526 61.5645627,18.9921859 56.0078125,22.796875 C50.4510623,26.6015641 44.7310102,33.8945329 38.8476563,44.6757813 C24.4282604,51.705024 15.6261771,58.5097115 12.4414062,65.0898438 C9.25663541,71.669976 9.25663541,83.0514865 12.4414062,99.234375 C5.60911525,113.00284 3.0973965,122.906486 4.90625,128.945313 C6.7151035,134.984139 13.9468743,140.838305 26.6015625,146.507813 C38.1239337,159.147338 47.926017,166.937703 56.0078125,169.878906 C64.089608,172.82011 75.6937746,172.82011 90.8203125,169.878906 Z" id="Path" stroke="#000000" stroke-width="8" fill="#B2E1B5"></path>
        <ellipse id="Oval" stroke="#979797" fill="#B73C3C" cx="44" cy="82.5" rx="4.5" ry="5"></ellipse>
        <ellipse id="Oval" stroke="#979797" fill="#B73C3C" cx="44" cy="82.5" rx="4.5" ry="5"></ellipse>
        <ellipse id="Oval" stroke="#979797" fill="#B73C3C" cx="44" cy="82.5" rx="4.5" ry="5"></ellipse>
        <ellipse id="Oval" stroke="#979797" fill="#B73C3C" cx="44" cy="82.5" rx="4.5" ry="5"></ellipse>
        <ellipse id="Oval" stroke="#979797" fill="#B73C3C" cx="44" cy="82.5" rx="4.5" ry="5"></ellipse>
        <ellipse id="Oval" stroke="#979797" fill="#B73C3C" cx="122" cy="88.5" rx="4.5" ry="5"></ellipse>
        <ellipse id="Oval" stroke="#979797" fill="#B73C3C" cx="110" cy="48.5" rx="4.5" ry="5"></ellipse>
        <ellipse id="Oval" stroke="#979797" fill="#B73C3C" cx="184" cy="60.5" rx="4.5" ry="5"></ellipse>
        <ellipse id="Oval" stroke="#979797" fill="#B73C3C" cx="78" cy="132.5" rx="4.5" ry="5"></ellipse>
        <path d="M91.671875,172.109375 C83.1666667,179.856771 78.9140625,196.182292 78.9140625,221.085937 C78.9140625,234.283737 72.0835743,257.711307 73.171875,278.089844 C73.8153904,290.139732 78.3140883,311.255617 86.6679688,341.4375 C99.7598074,345.307292 109.739754,347.242188 116.60781,347.242188 C123.475866,347.242188 132.999825,345.307292 145.179688,341.4375 C152.779959,314.066182 157.313813,295.050557 158.78125,284.390625 C161.886218,261.835144 158.78125,240.192247 158.78125,221.085937 C158.78125,188.434896 154.247396,172.109375 145.179688,172.109375 L91.671875,172.109375 Z" id="Path-2" stroke="#020202" stroke-width="4" fill="#533A15"></path>
        <ellipse id="Oval" stroke="#979797" fill="#B73C3C" cx="155" cy="105.5" rx="4.5" ry="5"></ellipse>
    </g>
</svg>