<svg id="Layer_1" enable-background="new 0 0 512 512" height="512" viewBox="0 0 512 512" width="512" xmlns="http://www.w3.org/2000/svg"><g><path d="m139.863 308.456h310.697l61.44-80.872h-310.697z" fill="#b5e8e0"/><path d="m470.793 227.583-61.441 80.873h41.208l61.44-80.873z" fill="#97dbd1"/><g><g><g><path d="m60.88 19.449h222.487v255.924h-222.487z" fill="#ffe6b8" transform="matrix(-.98 .198 -.198 -.98 369.97 257.927)"/><path d="m86.465 78.471h171.317v137.879h-171.317z" fill="#ff7893" transform="matrix(.198 .98 -.98 .198 282.639 -50.435)"/></g><g><g><path d="m416.721 371.9h-207.895v-270.175h140.759l67.136 67.135z" fill="#fff7e8"/><path d="m349.585 168.86h67.136l-67.136-67.135z" fill="#ffd88f"/></g></g></g></g><g><g><g><path d="m431.799 512h-290.093v-204.318h310.697v183.715c0 11.378-9.225 20.603-20.604 20.603z" fill="#59a1a5"/><path d="m411.196 307.682v183.715c0 11.379-9.225 20.604-20.604 20.604h41.207c11.379 0 20.604-9.225 20.604-20.604v-183.715z" fill="#419296"/><path d="m310.326 512h-228.282c-11.379 0-20.604-9.225-20.604-20.604v-183.714h248.886z" fill="#b5e8e0"/><path d="m310.326 308.456h-248.886l-61.44-80.872h248.886z" fill="#88cdd1"/></g></g></g></g></svg>